<?xml version="1.0" encoding="UTF-8" standalone="no"?>
<!-- Created with Inkscape (http://www.inkscape.org/) -->

<svg
   width="167.80533mm"
   height="26.143072mm"
   viewBox="0 0 167.80533 26.143072"
   version="1.1"
   id="svg5"
   xml:space="preserve"
   inkscape:version="1.2.2 (b0a84865, 2022-12-01)"
   sodipodi:docname="KL-Metroscape_logo.svg"
   inkscape:export-filename="KL-Metroscape_logo.png"
   inkscape:export-xdpi="96"
   inkscape:export-ydpi="96"
   xmlns:inkscape="http://www.inkscape.org/namespaces/inkscape"
   xmlns:sodipodi="http://sodipodi.sourceforge.net/DTD/sodipodi-0.dtd"
   xmlns="http://www.w3.org/2000/svg"
   xmlns:svg="http://www.w3.org/2000/svg"><sodipodi:namedview
     id="namedview7"
     pagecolor="#ffffff"
     bordercolor="#000000"
     borderopacity="0.25"
     inkscape:showpageshadow="2"
     inkscape:pageopacity="0.0"
     inkscape:pagecheckerboard="0"
     inkscape:deskcolor="#d1d1d1"
     inkscape:document-units="mm"
     showgrid="false"
     inkscape:zoom="0.914906"
     inkscape:cx="272.70561"
     inkscape:cy="215.86917"
     inkscape:window-width="1358"
     inkscape:window-height="1387"
     inkscape:window-x="2082"
     inkscape:window-y="25"
     inkscape:window-maximized="0"
     inkscape:current-layer="layer1" /><defs
     id="defs2" /><g
     inkscape:label="Layer 1"
     inkscape:groupmode="layer"
     id="layer1"
     transform="translate(-27.377905,-77.434248)"><text
       xml:space="preserve"
       style="font-size:19.3838px;fill:#72befb;stroke-width:1.61532"
       x="26.059807"
       y="92.784248"
       id="text113"><tspan
         sodipodi:role="line"
         id="tspan111"
         style="font-style:normal;font-variant:normal;font-weight:bold;font-stretch:normal;font-size:19.3838px;font-family:Logirent;-inkscape-font-specification:'Logirent, Bold';font-variant-ligatures:normal;font-variant-caps:normal;font-variant-numeric:normal;font-variant-east-asian:normal;fill:#cbc8cf;fill-opacity:1;stroke-width:1.61532"
         x="26.059807"
         y="92.784248">KL  Metroscape</tspan></text><path
       d="m 57.194485,79.344502 c -0.002,0.002 -0.221892,0.008 -0.488164,0.0141 -0.266271,0.008 -0.538595,0.0182 -0.605163,0.0222 -0.06657,0.006 -0.183566,0.0161 -0.262237,0.0222 -0.07665,0.006 -0.163394,0.0141 -0.191634,0.0181 -0.02824,0.004 -0.100861,0.0141 -0.161377,0.0222 -0.116998,0.0141 -0.147256,0.0202 -0.262237,0.0403 -0.03833,0.008 -0.09279,0.0182 -0.121033,0.0222 -0.796797,0.14121 -1.454407,0.51641 -1.8639,1.06509 -0.353011,0.47404 -0.627352,1.15586 -0.8089,2.00914 -0.01816,0.0827 -0.03631,0.16541 -0.04035,0.18155 -0.02421,0.11498 -0.0827,0.43975 -0.10086,0.55271 -0.0061,0.0424 -0.01412,0.0968 -0.02017,0.12103 -0.004,0.0242 -0.0121,0.0787 -0.01816,0.12305 -0.0121,0.0928 -0.05043,0.35907 -0.06253,0.4337 -0.004,0.0282 -0.01412,0.10692 -0.02017,0.17752 -0.0081,0.0706 -0.01614,0.14322 -0.02017,0.16137 -0.002,0.0182 -0.0121,0.10288 -0.02017,0.18559 -0.0081,0.0827 -0.01816,0.16541 -0.02017,0.18558 -0.004,0.0182 -0.0121,0.10893 -0.02017,0.20172 -0.0061,0.0908 -0.01614,0.18155 -0.02017,0.19769 -0.004,0.0161 -0.01412,0.10691 -0.02017,0.20172 -0.0081,0.0948 -0.01614,0.20374 -0.02017,0.24206 -0.0081,0.0787 -0.03026,0.46598 -0.04034,0.71611 -0.01412,0.31267 -0.03631,1.33741 -0.03631,1.72472 0,0.3994 0.0121,0.59709 0.05043,0.81697 0.01009,0.0666 0.02421,0.14725 0.03026,0.18154 0.03833,0.23803 0.187601,0.56482 0.353012,0.77058 0.213824,0.2703 0.601128,0.47808 1.004569,0.54061 0.05043,0.008 0.10893,0.0181 0.131119,0.0222 0.02219,0.004 0.131119,0.0141 0.242065,0.0202 0.110946,0.008 0.203738,0.0141 0.207772,0.0181 0.002,0.002 -0.0706,0.0948 -0.161376,0.20374 -0.09279,0.11094 -0.203738,0.2461 -0.248117,0.29854 -0.04438,0.0545 -0.104895,0.12709 -0.135153,0.16138 -0.02824,0.0343 -0.177514,0.21181 -0.328805,0.39537 -0.15129,0.18357 -0.296529,0.35503 -0.320736,0.38327 -0.02219,0.0282 -0.110946,0.13112 -0.193652,0.23198 -0.08271,0.0988 -0.171463,0.20374 -0.195669,0.23198 -0.02622,0.0282 -0.0464,0.0565 -0.0464,0.0625 0,0.008 0.33284,0.0121 0.740316,0.0121 l 0.740315,-0.004 0.292495,-0.35704 c 0.161377,-0.19567 0.322753,-0.38933 0.355029,-0.42967 0.03429,-0.0403 0.0706,-0.0847 0.08069,-0.0988 0.0121,-0.0121 0.07262,-0.0867 0.13717,-0.16339 0.06455,-0.0787 0.153308,-0.18155 0.195669,-0.23198 l 0.07665,-0.0908 h 2.71718 l 2.717179,0.002 0.04438,0.0524 c 0.02219,0.0282 0.07464,0.0908 0.112964,0.13717 0.03833,0.0464 0.135153,0.16339 0.213824,0.26022 0.25215,0.30863 0.556749,0.67576 0.601128,0.72821 0.02421,0.0282 0.06858,0.0827 0.09884,0.12305 l 0.05648,0.0746 h 0.734263 c 0.405459,0 0.736282,-0.006 0.736282,-0.0141 0,-0.0121 -0.199704,-0.25618 -0.837142,-1.02071 -0.03631,-0.0444 -0.229962,-0.27635 -0.429666,-0.51438 -0.199703,-0.23804 -0.363097,-0.43572 -0.36108,-0.43572 0.002,-0.002 0.09481,-0.0101 0.205755,-0.0161 0.110947,-0.006 0.223911,-0.0161 0.252152,-0.0202 0.02824,-0.006 0.108929,-0.0202 0.181549,-0.0323 0.629368,-0.11095 1.057016,-0.48413 1.252686,-1.09938 0.03631,-0.117 0.09683,-0.40546 0.112963,-0.54465 0.03833,-0.32477 0.0081,-2.28751 -0.04438,-2.93503 -0.004,-0.0504 -0.01412,-0.1634 -0.02017,-0.25215 -0.0081,-0.0888 -0.01614,-0.18962 -0.02017,-0.2219 -0.002,-0.0343 -0.0121,-0.13313 -0.01816,-0.22189 -0.0081,-0.0888 -0.01815,-0.18357 -0.02219,-0.21181 -0.0061,-0.0282 -0.01412,-0.10893 -0.02017,-0.18155 -0.0081,-0.0726 -0.01614,-0.1533 -0.02017,-0.18155 -0.004,-0.0282 -0.01412,-0.10086 -0.02017,-0.16137 -0.0061,-0.0605 -0.01412,-0.14322 -0.02017,-0.18155 -0.004,-0.0383 -0.0121,-0.10288 -0.01816,-0.14121 -0.01412,-0.10086 -0.09077,-0.62533 -0.10086,-0.68585 -0.03429,-0.19163 -0.05447,-0.29854 -0.06052,-0.33284 -0.004,-0.0222 -0.02824,-0.13515 -0.05245,-0.25215 -0.221893,-1.09534 -0.576921,-1.88609 -1.06912,-2.3803 -0.429666,-0.42967 -0.88152,-0.64147 -1.734799,-0.81697 -0.145239,-0.0282 -0.591042,-0.0807 -0.877486,-0.10086 -0.334856,-0.0242 -2.031328,-0.0545 -2.053518,-0.0383 z m 1.377753,0.70199 c 0.205756,0.008 0.41958,0.0182 0.474044,0.0222 0.05648,0.004 0.169446,0.0141 0.252151,0.0202 0.08271,0.008 0.17348,0.0161 0.201721,0.0202 0.02824,0.004 0.09683,0.0121 0.155325,0.0181 0.09279,0.0101 0.506319,0.0726 0.651558,0.10086 0.41958,0.0827 0.772591,0.31872 1.081224,0.73023 0.06052,0.0787 0.108929,0.15331 0.108929,0.16541 0,0.0141 0.0061,0.0242 0.01614,0.0242 0.0081,0 0.02421,0.0202 0.03631,0.0464 0.0121,0.0242 0.0585,0.11297 0.102877,0.19567 0.252151,0.47606 0.494217,1.30917 0.578939,2.00712 0.0081,0.0545 0.01816,0.12709 0.02219,0.16138 0.01412,0.0888 0.02622,0.22189 0.04034,0.39336 0.0081,0.0827 0.01816,0.1876 0.02219,0.23198 0.0061,0.0444 0.01412,0.26627 0.01816,0.49421 0.0081,0.38327 0.0061,0.4216 -0.03228,0.52851 -0.05447,0.14322 -0.15129,0.24812 -0.296529,0.31468 l -0.114981,0.0545 h -4.226051 -4.226051 l -0.114981,-0.0565 c -0.145239,-0.0706 -0.250134,-0.19163 -0.290478,-0.33283 -0.04438,-0.14928 -0.04236,-0.48414 0.002,-1.15385 0.0081,-0.12507 0.04438,-0.46396 0.06052,-0.56482 0.004,-0.0282 0.02219,-0.15129 0.04035,-0.27232 0.02824,-0.18357 0.06455,-0.36108 0.121032,-0.59911 0.135153,-0.57692 0.371166,-1.1599 0.613231,-1.52299 0.338891,-0.50632 0.732247,-0.77865 1.252686,-0.86337 0.278375,-0.0444 0.451855,-0.0706 0.546664,-0.0807 0.06253,-0.006 0.131118,-0.0141 0.15129,-0.0182 0.03631,-0.008 0.240048,-0.0262 0.482113,-0.0444 0.05648,-0.004 0.292496,-0.0141 0.524475,-0.0202 0.233996,-0.008 0.42563,-0.0141 0.427647,-0.0161 0.0081,-0.006 0.99045,0.004 1.317237,0.0161 z m -3.64106,7.20143 c 0.163394,0.0303 0.304598,0.14726 0.377218,0.30864 0.04034,0.0867 0.04438,0.13112 0.04438,0.42966 0,0.3046 -0.004,0.34293 -0.04841,0.43975 -0.02622,0.0625 -0.0827,0.13919 -0.135153,0.18559 -0.157342,0.13717 -0.179531,0.13918 -1.000535,0.13515 l -0.730229,-0.004 -0.09884,-0.0504 c -0.127084,-0.0645 -0.242065,-0.19567 -0.276357,-0.3167 -0.04034,-0.14322 -0.03429,-0.69796 0.0081,-0.7968 0.08069,-0.19163 0.236013,-0.31065 0.431682,-0.33486 0.147257,-0.0182 1.325306,-0.0141 1.428184,0.004 z m 6.949282,-0.002 c 0.169445,0.0343 0.320736,0.16542 0.38327,0.33083 0.03631,0.0988 0.04236,0.1533 0.03833,0.42966 -0.002,0.28846 -0.0061,0.32881 -0.04841,0.4216 -0.05648,0.11901 -0.139187,0.20575 -0.258202,0.26829 -0.08271,0.0444 -0.102878,0.0464 -0.804866,0.0525 -0.463958,0.004 -0.748385,-0.002 -0.800832,-0.0161 -0.131118,-0.0343 -0.264254,-0.13919 -0.332839,-0.26224 l -0.06253,-0.11095 v -0.37318 c 0,-0.42361 0.0121,-0.47001 0.171463,-0.61323 0.102877,-0.0928 0.155325,-0.11297 0.332839,-0.1291 0.161377,-0.0161 1.305134,-0.0141 1.381788,0.002 z"
       id="path300"
       style="fill:#66adac;fill-opacity:1;stroke:none;stroke-width:0.00201721" /><text
       xml:space="preserve"
       style="font-style:normal;font-variant:normal;font-weight:bold;font-stretch:normal;font-size:7.05556px;font-family:Logirent;-inkscape-font-specification:'Logirent, Bold';font-variant-ligatures:normal;font-variant-caps:normal;font-variant-numeric:normal;font-variant-east-asian:normal;fill:#cbc8cf;fill-opacity:1;stroke-width:0.264583"
       x="72.023682"
       y="101.35868"
       id="text1779"><tspan
         sodipodi:role="line"
         id="tspan1777"
         style="font-style:normal;font-variant:normal;font-weight:normal;font-stretch:normal;font-size:7.05556px;font-family:Arial;-inkscape-font-specification:Arial;font-variant-ligatures:normal;font-variant-caps:normal;font-variant-numeric:normal;font-variant-east-asian:normal;stroke-width:0.264583"
         x="72.023682"
         y="101.35868">City Planning Reflections</tspan></text></g></svg>
