<svg version="1.1" width="400" height="400" viewBox="284.5,302,400,400" xmlns="http://www.w3.org/2000/svg">
  <defs></defs>
  <path d="M 434.013 319.65 C 446.333 318.63 458.703 318.37 471.063 318.43 C 490.763 318.5 510.493 318.01 530.143 319.68 C 552.183 321.58 575.403 325.3 593.473 339.03 C 610.283 351.84 619.563 371.77 625.483 391.54 C 633.073 417.28 636.493 444.01 639.413 470.62 C 641.253 488.51 642.873 506.45 643.033 524.45 C 643.763 540.8 644.093 557.17 643.823 573.53 C 642.943 588.9 639.983 605.67 628.463 616.86 C 617.223 627.54 601.003 629.82 586.133 630.13 C 601.923 648.79 617.463 667.66 633.133 686.42 C 619.073 686.45 605.013 686.41 590.953 686.44 C 580.229 673.471 569.542 660.471 558.893 647.44 C 507.563 647.4 456.223 647.47 404.883 647.41 C 393.973 660.28 383.443 673.46 372.633 686.42 C 358.523 686.45 344.413 686.42 330.303 686.43 C 346.113 667.76 361.623 648.81 377.393 630.1 C 363.543 629.83 348.663 627.88 337.513 618.93 C 327.673 611.03 322.953 598.59 321.103 586.44 C 318.873 571.88 319.613 557.08 320.083 542.43 C 320.303 521.72 321.003 501 323.183 480.4 C 325.593 455.23 328.623 430.03 334.363 405.37 C 338.523 388.24 343.973 371.04 353.913 356.31 C 361.533 344.91 372.423 335.78 384.983 330.26 C 400.403 323.42 417.333 321 434.013 319.65 Z M 407.003 343.39 C 399.753 344.7 392.903 347.92 387.213 352.58 C 374.963 362.55 367.523 377.07 362.253 391.67 C 353.373 417.25 350.093 444.47 349.483 471.43 C 349.533 476.6 348.873 482.17 351.573 486.85 C 354.503 492.37 360.953 495.22 367.033 495.02 C 443.713 495 520.383 495.02 597.063 495.01 C 603.273 495.12 609.793 491.9 612.373 486.05 C 614.903 480.9 614.173 475.04 614.173 469.51 C 613.223 446.26 610.763 422.88 604.173 400.49 C 600.043 386.77 594.503 373.19 585.533 361.89 C 578.873 353.42 569.793 346.52 559.213 343.94 C 527.733 337.35 495.403 337.57 463.403 337.95 C 444.503 338.25 425.593 339.89 407.003 343.39 Z M 351.503 551.49 C 350.123 555.32 350.563 559.46 350.473 563.45 C 350.533 568 350.013 572.93 352.463 577.02 C 355.093 581.9 360.553 584.91 366.073 584.76 C 377.733 584.78 389.393 584.8 401.053 584.75 C 407.443 584.85 413.473 580.38 415.443 574.34 C 416.973 568.87 415.933 563.07 416.233 557.46 C 416.573 549.53 410.003 542.03 401.963 541.88 C 389.463 541.84 376.953 541.78 364.463 541.91 C 358.743 542.17 353.513 546.17 351.503 551.49 Z M 547.473 557.36 C 547.773 563.04 546.783 568.87 548.163 574.44 C 550.103 580.33 555.873 584.72 562.123 584.72 C 573.773 584.84 585.423 584.75 597.073 584.77 C 602.363 585.04 607.653 582.39 610.533 577.92 C 614.443 572.17 612.673 564.88 613.083 558.39 C 613.473 552.67 610.653 546.75 605.613 543.88 C 600.963 540.96 595.293 542.03 590.113 541.85 C 579.923 542.01 569.693 541.51 559.523 542.1 C 552.503 543.35 546.983 550.2 547.473 557.36 Z" id="CompoundPath 1" fill="#03271f" fill-rule="nonzero" stroke="none" stroke-width="1" stroke-linecap="butt" stroke-linejoin="miter" stroke-miterlimit="10" stroke-dasharray="" stroke-dashoffset="0" font-family="none" font-weight="none" font-size="none" text-anchor="none" style="mix-blend-mode: normal;"></path>
</svg>