<?xml version="1.0" encoding="UTF-8" standalone="no"?>
<!-- Created with Inkscape (http://www.inkscape.org/) -->

<svg
   width="14.208632mm"
   height="12.843152mm"
   viewBox="0 0 14.208632 12.843152"
   version="1.1"
   id="svg2550"
   xml:space="preserve"
   inkscape:version="1.2.2 (b0a84865, 2022-12-01)"
   sodipodi:docname="MRT_logo.svg"
   inkscape:export-filename="MRT_logo.png"
   inkscape:export-xdpi="600"
   inkscape:export-ydpi="600"
   xmlns:inkscape="http://www.inkscape.org/namespaces/inkscape"
   xmlns:sodipodi="http://sodipodi.sourceforge.net/DTD/sodipodi-0.dtd"
   xmlns="http://www.w3.org/2000/svg"
   xmlns:svg="http://www.w3.org/2000/svg"><sodipodi:namedview
     id="namedview2552"
     pagecolor="#ffffff"
     bordercolor="#000000"
     borderopacity="0.25"
     inkscape:showpageshadow="2"
     inkscape:pageopacity="0.0"
     inkscape:pagecheckerboard="0"
     inkscape:deskcolor="#d1d1d1"
     inkscape:document-units="mm"
     showgrid="false"
     inkscape:zoom="8.0130952"
     inkscape:cx="18.220175"
     inkscape:cy="36.627544"
     inkscape:window-width="1358"
     inkscape:window-height="1387"
     inkscape:window-x="2082"
     inkscape:window-y="25"
     inkscape:window-maximized="0"
     inkscape:current-layer="layer1" /><defs
     id="defs2547"><clipPath
       clipPathUnits="userSpaceOnUse"
       id="clipPath2650"><g
         id="g2654"
         transform="matrix(2.8346458,0,0,2.8346458,1530.6048,-3382.1723)"><path
           d="M -539.96334,-178.44477 H 526.83664 V 1193.1552 H -539.96334 Z"
           id="path2652"
           inkscape:connector-curvature="0"
           style="stroke-width:0.352778" /></g></clipPath><clipPath
       clipPathUnits="userSpaceOnUse"
       id="clipPath2662"><g
         id="g2666"
         transform="matrix(2.8346458,0,0,-2.8346458,-265.55542,293.78359)"><path
           d="M -539.96334,-178.44477 H 526.83664 V 1193.1552 H -539.96334 Z"
           id="path2664"
           inkscape:connector-curvature="0"
           style="stroke-width:0.352778" /></g></clipPath><clipPath
       clipPathUnits="userSpaceOnUse"
       id="clipPath2668"><g
         id="g2672"
         transform="matrix(2.8346458,0,0,-2.8346458,-324.02022,299.17231)"><path
           d="M -539.96334,-178.44477 H 526.83664 V 1193.1552 H -539.96334 Z"
           id="path2670"
           inkscape:connector-curvature="0"
           style="stroke-width:0.352778" /></g></clipPath><clipPath
       clipPathUnits="userSpaceOnUse"
       id="clipPath883"><g
         id="g889"
         transform="matrix(2.8346458,0,0,-2.8346458,-295.32484,280.56719)"><g
           id="g887"
           transform="translate(-2.5094319,-1.7169017)"><path
             d="M -539.96334,-178.44477 H 526.83664 V 1193.1552 H -539.96334 Z"
             id="path885"
             inkscape:connector-curvature="0"
             style="stroke-width:0.352778" /></g></g></clipPath><clipPath
       clipPathUnits="userSpaceOnUse"
       id="clipPath891"><g
         id="g897"
         transform="matrix(2.8346458,0,0,-2.8346458,-293.69294,278.99689)"><g
           id="g895"
           transform="translate(-2.5094319,-1.7169017)"><path
             d="M -539.96334,-178.44477 H 526.83664 V 1193.1552 H -539.96334 Z"
             id="path893"
             inkscape:connector-curvature="0"
             style="stroke-width:0.352778" /></g></g></clipPath><clipPath
       clipPathUnits="userSpaceOnUse"
       id="clipPath899"><g
         id="g905"
         transform="matrix(2.8346458,0,0,-2.8346458,-297.12365,276.61799)"><g
           id="g903"
           transform="translate(-2.5094319,-1.7169017)"><path
             d="M -539.96334,-178.44477 H 526.83664 V 1193.1552 H -539.96334 Z"
             id="path901"
             inkscape:connector-curvature="0"
             style="stroke-width:0.352778" /></g></g></clipPath><clipPath
       clipPathUnits="userSpaceOnUse"
       id="clipPath907"><g
         id="g913"
         transform="matrix(2.8346458,0,0,-2.8346458,-274.87755,276.61799)"><g
           id="g911"
           transform="translate(-2.5094319,-1.7169017)"><path
             d="M -539.96334,-178.44477 H 526.83664 V 1193.1552 H -539.96334 Z"
             id="path909"
             inkscape:connector-curvature="0"
             style="stroke-width:0.352778" /></g></g></clipPath><clipPath
       clipPathUnits="userSpaceOnUse"
       id="clipPath915"><g
         id="g921"
         transform="matrix(2.8346458,0,0,-2.8346458,-295.21446,269.09159)"><g
           id="g919"
           transform="translate(-2.5094319,-1.7169017)"><path
             d="M -539.96334,-178.44477 H 526.83664 V 1193.1552 H -539.96334 Z"
             id="path917"
             inkscape:connector-curvature="0"
             style="stroke-width:0.352778" /></g></g></clipPath></defs><g
     inkscape:label="Layer 1"
     inkscape:groupmode="layer"
     id="layer1"
     transform="translate(-93.790416,-86.601018)"><g
       id="g12969"
       transform="matrix(0.35277777,0,0,-0.35277777,104.1451,94.929532)"
       style="fill:#67adac;fill-opacity:1"
       clip-path="url(#clipPath915)"><path
         d="m 0,0 c -1.992,-0.339 -3.182,-3.016 -3.182,-3.016 6.392,0.021 6.06,3.88 6.06,3.88 C 2.573,0.422 0,0 0,0 m -21.306,0.864 c 0,0 -0.303,-3.859 6.061,-3.88 0,0 -1.191,2.677 -3.183,3.016 0,0 -2.573,0.422 -2.878,0.864 m 3.791,16.222 c -1.577,-0.11 -2.131,-1.591 -2.131,-1.591 0,0 -1.853,-4.794 6.475,-9.498 0,0 2.187,-0.968 3.957,-0.968 1.799,0 3.957,0.968 3.957,0.968 8.301,4.704 6.475,9.498 6.475,9.498 0,0 -0.554,1.481 -2.158,1.591 -0.692,0.041 -8.274,0.069 -8.274,0.069 0,0 -7.581,-0.028 -8.301,-0.069 m 1.882,-25.414 c -7.609,1.791 -7.997,3.652 -7.997,11.22 0,7.581 1.938,15.48 1.938,15.48 0.94,5.382 5.229,5.236 5.229,5.236 h 7.222 7.166 c 0,0 4.289,0.146 5.229,-5.236 0,0 1.965,-7.899 1.965,-15.48 0,-7.568 -0.415,-9.429 -7.997,-11.22 0,0 -2.24,-0.644 -6.363,-0.644 -4.151,0 -6.392,0.644 -6.392,0.644"
         style="fill:#67adac;fill-opacity:1;fill-rule:nonzero;stroke:none"
         id="path12971"
         inkscape:connector-curvature="0" /></g><g
       id="g12973"
       transform="matrix(0.35277777,0,0,-0.35277777,96.970689,97.584678)"
       style="fill:#67adac;fill-opacity:1"
       clip-path="url(#clipPath907)"><path
         d="m 0,0 -7.222,-3.818 c -3.624,-1.632 -0.996,-1.349 1.245,-1.383 2.74,-0.049 3.902,-0.07 3.902,-0.07 0.969,0 1.384,0.236 2.38,1.315 l 2.849,2.96 C 1.965,-0.719 1.411,-0.595 0,0"
         style="fill:#67adac;fill-opacity:1;fill-rule:nonzero;stroke:none"
         id="path12975"
         inkscape:connector-curvature="0" /></g><g
       id="g12977"
       transform="matrix(0.35277777,0,0,-0.35277777,104.81862,97.584678)"
       style="fill:#67adac;fill-opacity:1"
       clip-path="url(#clipPath899)"><path
         d="m 0,0 7.222,-3.818 c 3.625,-1.632 0.996,-1.349 -1.245,-1.383 -2.74,-0.049 -3.902,-0.07 -3.902,-0.07 -0.968,0 -1.384,0.236 -2.351,1.315 l -2.878,2.96 C -1.937,-0.719 -1.411,-0.595 0,0"
         style="fill:#67adac;fill-opacity:1;fill-rule:nonzero;stroke:none"
         id="path12979"
         inkscape:connector-curvature="0" /></g><g
       id="g12981"
       transform="matrix(0.35277777,0,0,-0.35277777,103.60834,98.423901)"
       style="fill:#67adac;fill-opacity:1"
       clip-path="url(#clipPath891)"><path
         d="M 0,0 0.747,-0.74 H -16.214 L -15.329,0 Z"
         style="fill:#67adac;fill-opacity:1;fill-rule:nonzero;stroke:none"
         id="path12983"
         inkscape:connector-curvature="0" /></g><g
       id="g12985"
       transform="matrix(0.35277777,0,0,-0.35277777,104.18404,98.977868)"
       style="fill:#67adac;fill-opacity:1"
       clip-path="url(#clipPath883)"><path
         d="M 0,0 0.969,-0.962 H -19.617 L -18.621,0 Z"
         style="fill:#67adac;fill-opacity:1;fill-rule:nonzero;stroke:none"
         id="path12987"
         inkscape:connector-curvature="0" /></g><g
       transform="matrix(0.35277777,0,0,-0.35277777,126.05802,443.17446)"
       id="g13001" /><g
       transform="matrix(0.35277777,0,0,-0.35277777,128.96671,438.64518)"
       id="g13009" /></g></svg>
