<?xml version="1.0" standalone="no"?>
<!DOCTYPE svg PUBLIC "-//W3C//DTD SVG 20010904//EN"
 "http://www.w3.org/TR/2001/REC-SVG-20010904/DTD/svg10.dtd">
<svg version="1.0" xmlns="http://www.w3.org/2000/svg"
 width="864.000000pt" height="864.000000pt" viewBox="0 0 864.000000 864.000000"
 preserveAspectRatio="xMidYMid meet">
<metadata>
Created by potrace 1.14, written by Peter Selinger 2001-2017
</metadata>
<g transform="translate(0.000000,864.000000) scale(0.100000,-0.100000)"
fill="#000000" stroke="none">
<path d="M2630 8210 c0 -6 -3 -9 -7 -8 -49 12 -350 -98 -417 -153 -6 -5 -39
-29 -72 -54 -34 -25 -94 -80 -134 -122 -71 -75 -178 -223 -163 -223 4 0 3 -4
-4 -8 -23 -15 -134 -281 -149 -357 -3 -18 -16 -72 -19 -85 -9 -31 -65 -284
-71 -320 -3 -14 -16 -77 -29 -140 -13 -63 -27 -127 -30 -142 -3 -16 -7 -40
-10 -55 -41 -210 -53 -272 -60 -323 -1 -14 -6 -40 -9 -57 -3 -18 -8 -48 -11
-65 -3 -18 -10 -58 -15 -88 -5 -30 -12 -72 -16 -94 -3 -21 -8 -48 -11 -60 -2
-11 -5 -28 -5 -36 0 -8 -6 -55 -14 -105 -7 -49 -15 -106 -18 -125 -2 -19 -7
-53 -10 -75 -4 -22 -9 -58 -12 -80 -2 -22 -6 -51 -8 -65 -2 -14 -7 -56 -11
-93 -3 -37 -8 -76 -10 -86 -2 -10 -6 -54 -10 -97 -4 -43 -9 -86 -10 -95 -2 -9
-6 -52 -10 -95 -3 -43 -8 -95 -10 -114 -7 -54 -20 -248 -31 -424 -2 -49 -7
-93 -10 -97 -2 -4 0 -10 6 -14 6 -4 7 -11 3 -18 -10 -16 -12 -102 -12 -517 0
-614 12 -851 59 -1100 5 -30 12 -66 14 -80 7 -36 31 -127 51 -185 18 -54 102
-232 120 -252 28 -33 35 -43 35 -47 0 -33 226 -238 307 -280 18 -9 33 -21 33
-26 0 -6 9 -10 19 -10 11 0 21 -3 23 -7 6 -14 164 -89 298 -141 41 -16 84 -33
95 -37 11 -5 22 -9 25 -10 3 0 39 -12 80 -25 41 -13 77 -25 80 -25 13 -2 127
-37 140 -42 8 -3 20 -7 25 -8 15 -2 64 -15 120 -31 28 -7 70 -18 95 -23 25 -5
63 -15 85 -20 22 -6 85 -20 140 -32 142 -29 143 -29 183 -34 21 -2 48 -6 62
-9 22 -4 80 -12 165 -21 17 -2 62 -6 100 -9 39 -3 79 -8 90 -10 127 -25 983
-26 1250 -2 22 2 76 7 120 11 44 3 91 8 105 10 14 3 49 7 78 11 29 3 61 7 72
9 10 2 38 6 62 10 79 12 93 14 143 25 28 6 61 13 75 15 33 6 371 92 390 99 8
3 26 8 40 10 14 3 63 17 110 31 47 15 90 27 95 29 31 7 92 30 103 39 6 5 12 7
12 3 0 -5 80 23 125 44 20 10 76 32 85 35 20 5 177 86 230 119 136 84 274 206
346 307 87 120 166 308 199 474 32 159 50 293 60 440 24 359 24 1081 -1 1425
-2 36 -6 101 -9 145 -6 96 -12 181 -19 255 -13 146 -19 207 -22 225 -2 10 -6
49 -10 85 -3 36 -8 79 -10 95 -2 17 -6 55 -9 85 -4 30 -8 66 -11 80 -2 14 -6
48 -9 75 -4 28 -9 64 -12 80 -3 17 -6 41 -8 55 -1 14 -5 43 -9 65 -4 22 -9 58
-11 80 -3 22 -10 65 -15 95 -5 30 -12 71 -15 90 -2 19 -6 44 -9 55 -2 11 -7
40 -10 65 -3 25 -8 56 -11 70 -13 64 -27 148 -31 175 -2 17 -8 53 -14 80 -6
28 -12 61 -15 74 -2 14 -9 47 -15 75 -18 88 -20 100 -26 136 -3 19 -7 42 -10
50 -3 8 -8 25 -10 38 -2 12 -6 32 -8 45 -2 12 -10 45 -16 72 -6 28 -14 61 -16
75 -2 14 -7 36 -11 50 -3 14 -7 31 -9 39 -1 7 -7 34 -13 60 -6 25 -13 57 -15
71 -25 131 -90 329 -146 440 -97 195 -301 421 -435 482 -14 6 -25 15 -25 20 0
4 -6 8 -14 8 -8 0 -31 9 -50 21 -36 21 -187 75 -234 84 -15 3 -38 8 -52 12
-39 12 -3380 15 -3380 3z m3095 -1384 c411 -6 435 -7 510 -35 72 -27 96 -41
157 -92 146 -119 200 -250 200 -484 0 -86 -2 -110 -17 -200 -16 -95 -83 -303
-106 -330 -5 -5 -9 -17 -9 -26 0 -10 -5 -19 -11 -21 -5 -2 -11 -10 -12 -18 -6
-40 -142 -245 -241 -365 -64 -77 -287 -300 -346 -345 -24 -19 -52 -42 -60 -50
-19 -18 -57 -47 -130 -100 -30 -22 -61 -45 -68 -51 -29 -24 -223 -149 -231
-149 -5 0 -11 -4 -13 -9 -3 -9 -55 -39 -158 -94 -58 -31 -241 -104 -280 -112
-8 -2 -35 -10 -60 -19 -41 -14 -190 -51 -247 -62 -13 -2 -35 -6 -50 -9 -117
-23 -389 -22 -463 0 -8 2 -32 7 -53 10 -42 7 -255 62 -297 77 -8 3 -55 20
-105 37 -116 41 -180 71 -285 134 -84 50 -280 177 -290 187 -3 3 -22 16 -42
30 -21 14 -38 28 -38 33 0 4 -4 7 -10 7 -5 0 -18 6 -27 14 -193 157 -252 207
-323 278 -102 103 -170 178 -170 190 0 4 -4 8 -8 8 -16 0 -165 211 -202 285
-8 17 -18 32 -21 35 -5 4 -39 74 -75 155 -93 211 -124 513 -71 712 15 55 65
146 107 191 42 47 139 121 165 128 14 3 25 9 25 13 0 8 71 28 130 37 19 3 283
8 585 11 303 2 551 6 552 6 3 4 1729 -2 2088 -7z m1188 -3528 c-8 -94 -20
-144 -50 -218 -72 -175 -214 -317 -413 -413 -65 -31 -203 -82 -250 -92 -223
-48 -253 -52 -462 -61 l-127 -6 36 69 c20 37 40 70 45 71 4 2 8 8 8 13 0 22
140 206 212 277 87 87 238 185 304 197 10 2 19 4 19 5 0 2 32 9 65 14 14 3 59
11 100 20 41 8 86 17 100 20 47 8 235 57 255 66 11 4 40 16 65 25 25 9 56 25
70 35 14 11 25 20 26 20 1 0 -1 -19 -3 -42z m-5163 24 c0 -10 77 -43 165 -71
54 -17 193 -49 419 -95 161 -33 263 -92 396 -226 47 -47 92 -95 100 -106 50
-66 72 -98 122 -179 30 -50 58 -100 62 -113 l8 -23 -114 3 c-62 1 -117 4 -122
7 -5 2 -32 5 -60 7 -28 1 -69 6 -91 10 -22 4 -48 7 -57 8 -10 0 -18 4 -18 9 0
4 -4 6 -9 2 -11 -6 -181 37 -254 66 -248 97 -422 245 -506 430 -42 93 -67 201
-62 267 1 13 21 17 21 4z"/>
<path d="M1890 1519 c-19 -11 -91 -49 -160 -86 -69 -36 -147 -78 -175 -93 -27
-15 -93 -49 -145 -76 -52 -27 -97 -51 -100 -54 -5 -6 -38 -22 -50 -24 -3 -1
-12 -6 -20 -11 -8 -5 -35 -20 -60 -33 -96 -51 -231 -122 -355 -188 -71 -37
-170 -90 -220 -116 -49 -27 -178 -92 -285 -145 -107 -53 -197 -100 -198 -105
-2 -4 -8 -8 -14 -8 -5 0 -32 -17 -59 -37 -74 -57 -58 -92 51 -108 25 -4 214
-8 421 -9 207 -2 381 -6 387 -10 7 -4 12 -2 12 4 0 6 5 8 11 5 6 -4 153 -9
327 -11 496 -6 444 -32 912 455 212 221 327 341 396 412 l45 46 -98 23 c-170
40 -377 105 -477 150 -35 15 -107 41 -110 39 -1 0 -17 -9 -36 -20z"/>
<path d="M6616 1505 c-44 -19 -102 -42 -130 -51 -28 -9 -55 -19 -61 -23 -5 -3
-14 -6 -20 -7 -5 -1 -37 -10 -70 -20 -33 -10 -64 -19 -70 -20 -5 0 -17 -3 -25
-7 -18 -6 -93 -24 -137 -31 -81 -15 -84 -8 90 -187 89 -92 254 -262 367 -379
113 -117 214 -221 225 -232 42 -42 133 -96 195 -116 62 -20 80 -21 410 -17
190 2 345 5 345 5 0 1 169 3 375 5 453 4 511 9 527 51 7 19 -53 79 -102 104
-16 8 -32 18 -35 21 -3 3 -84 44 -180 92 -96 48 -222 112 -280 142 -58 31
-154 82 -215 113 -60 31 -112 59 -115 62 -3 3 -32 18 -65 35 -33 16 -62 32
-65 35 -3 3 -36 21 -75 40 -38 19 -108 55 -155 81 -73 39 -319 168 -445 233
-22 12 -42 23 -45 26 -7 7 -155 80 -160 79 -3 0 -41 -16 -84 -34z"/>
<path d="M2648 1003 c-62 -52 -81 -68 -117 -100 l-36 -32 1805 0 c992 0 1808
3 1813 6 4 2 -26 38 -67 79 l-75 74 -1645 0 -1644 0 -34 -27z"/>
<path d="M2224 595 c-57 -56 -104 -103 -104 -105 0 -6 4389 -5 4395 1 2 3 -40
50 -95 104 l-99 99 -1997 0 -1996 1 -104 -100z"/>
</g>
</svg>
