<?xml version="1.0" standalone="no"?>
<!DOCTYPE svg PUBLIC "-//W3C//DTD SVG 20010904//EN"
 "http://www.w3.org/TR/2001/REC-SVG-20010904/DTD/svg10.dtd">
<svg version="1.0" xmlns="http://www.w3.org/2000/svg"
 width="700.000000pt" height="700.000000pt" viewBox="0 0 700.000000 700.000000"
 preserveAspectRatio="xMidYMid meet">
<metadata>
Created by potrace 1.14, written by Peter Selinger 2001-2017
</metadata>
<g transform="translate(0.000000,700.000000) scale(0.100000,-0.100000)"
fill="#000000" stroke="none">
<path d="M3217 6714 c-1 -1 -110 -4 -242 -7 -132 -4 -267 -9 -300 -11 -33 -3
-91 -8 -130 -11 -38 -3 -81 -7 -95 -9 -14 -2 -50 -7 -80 -11 -58 -7 -73 -10
-130 -20 -19 -4 -46 -9 -60 -11 -395 -70 -721 -256 -924 -528 -175 -235 -311
-573 -401 -996 -9 -41 -18 -82 -20 -90 -12 -57 -41 -218 -50 -274 -3 -21 -7
-48 -10 -60 -2 -12 -6 -39 -9 -61 -6 -46 -25 -178 -31 -215 -2 -14 -7 -53 -10
-88 -4 -35 -8 -71 -10 -80 -1 -9 -6 -51 -10 -92 -4 -41 -9 -82 -10 -92 -2 -9
-6 -54 -10 -100 -3 -45 -8 -90 -10 -98 -2 -8 -7 -53 -10 -100 -4 -47 -8 -101
-10 -120 -4 -39 -15 -231 -20 -355 -7 -155 -18 -663 -18 -855 0 -198 6 -296
25 -405 5 -33 12 -73 15 -90 19 -118 93 -280 175 -382 106 -134 298 -237 498
-268 25 -4 54 -9 65 -11 11 -2 65 -7 120 -10 55 -4 101 -7 103 -9 1 -1 -35
-47 -80 -101 -46 -55 -101 -122 -123 -148 -22 -27 -52 -63 -67 -80 -14 -17
-88 -105 -163 -196 -75 -91 -147 -176 -159 -190 -11 -14 -55 -65 -96 -115 -41
-49 -85 -101 -97 -115 -13 -14 -23 -28 -23 -31 0 -4 165 -6 367 -6 l367 2 145
177 c80 97 160 193 176 213 17 20 35 42 40 49 6 6 36 43 68 81 32 39 76 90 97
115 l38 45 1347 0 1347 -1 22 -26 c11 -14 37 -45 56 -68 19 -23 67 -81 106
-129 125 -153 276 -335 298 -361 12 -14 34 -41 49 -61 l28 -37 364 0 c201 0
365 3 365 7 0 6 -99 127 -415 506 -18 22 -114 137 -213 255 -99 118 -180 216
-179 216 1 1 47 5 102 8 55 3 111 8 125 10 14 3 54 10 90 16 312 55 524 240
621 545 18 58 48 201 56 270 19 161 4 1134 -22 1455 -2 25 -7 81 -10 125 -4
44 -8 94 -10 110 -1 17 -6 66 -9 110 -4 44 -9 91 -11 105 -3 14 -7 54 -10 90
-4 36 -8 76 -10 90 -2 14 -7 50 -10 80 -3 30 -7 71 -10 90 -2 19 -6 51 -9 70
-7 50 -45 310 -50 340 -17 95 -27 148 -30 165 -2 11 -14 67 -26 125 -110 543
-286 935 -530 1180 -213 213 -437 318 -860 405 -72 14 -293 40 -435 50 -166
12 -1007 27 -1018 19z m683 -348 c102 -4 208 -9 235 -11 28 -2 84 -7 125 -10
41 -4 86 -8 100 -10 14 -2 48 -6 77 -9 46 -5 251 -36 323 -50 208 -41 383
-158 536 -362 30 -39 54 -76 54 -82 0 -7 3 -12 8 -12 4 0 12 -10 18 -23 6 -12
29 -56 51 -97 125 -236 245 -649 287 -995 4 -27 9 -63 11 -80 7 -44 13 -110
20 -195 4 -41 9 -93 11 -115 3 -22 7 -132 9 -245 4 -190 3 -209 -16 -262 -27
-71 -75 -123 -147 -156 l-57 -27 -2095 0 -2095 0 -57 28 c-72 35 -124 95 -144
165 -22 74 -21 240 1 572 4 62 22 230 30 280 2 14 11 75 20 135 14 91 32 179
60 297 67 286 184 575 304 755 168 251 363 386 621 428 138 22 224 35 271 40
31 3 65 7 75 9 18 4 119 13 239 22 28 2 145 7 260 10 116 4 211 7 212 8 4 3
491 -2 653 -8z m-1805 -3570 c81 -15 151 -73 187 -153 20 -43 22 -65 22 -213
0 -151 -2 -170 -24 -218 -13 -31 -41 -69 -67 -92 -78 -68 -89 -69 -496 -67
l-362 2 -49 25 c-63 32 -120 97 -137 157 -20 71 -17 346 4 395 40 95 117 154
214 166 73 9 657 7 708 -2z m3445 1 c84 -17 159 -82 190 -164 18 -49 21 -76
19 -213 -1 -143 -3 -163 -24 -209 -28 -59 -69 -102 -128 -133 -41 -22 -51 -23
-399 -26 -230 -2 -371 1 -397 8 -65 17 -131 69 -165 130 l-31 55 0 185 c0 210
6 233 85 304 51 46 77 56 165 64 80 8 647 7 685 -1z"/>
</g>
</svg>
