<?xml version="1.0" encoding="UTF-8" standalone="no"?>
<svg
   width="1280"
   height="640"
   viewBox="0 0 1280 640"
   version="1.1"
   id="svg8"
   inkscape:version="1.2.2 (b0a84865, 2022-12-01)"
   sodipodi:docname="SocialMedia-KL-Cityscape.svg"
   inkscape:export-filename="C:\Users\renek\Desktop\bitmap.png"
   inkscape:export-xdpi="96"
   inkscape:export-ydpi="96"
   xml:space="preserve"
   xmlns:inkscape="http://www.inkscape.org/namespaces/inkscape"
   xmlns:sodipodi="http://sodipodi.sourceforge.net/DTD/sodipodi-0.dtd"
   xmlns="http://www.w3.org/2000/svg"
   xmlns:svg="http://www.w3.org/2000/svg"
   xmlns:rdf="http://www.w3.org/1999/02/22-rdf-syntax-ns#"
   xmlns:cc="http://creativecommons.org/ns#"
   xmlns:dc="http://purl.org/dc/elements/1.1/"><defs
     id="defs2" /><sodipodi:namedview
     id="base"
     pagecolor="#ffffff"
     bordercolor="#666666"
     borderopacity="1.0"
     inkscape:pageopacity="0.0"
     inkscape:pageshadow="2"
     inkscape:zoom="0.7"
     inkscape:cx="372.14286"
     inkscape:cy="364.28571"
     inkscape:document-units="px"
     inkscape:current-layer="layer1"
     inkscape:document-rotation="0"
     showgrid="false"
     units="px"
     inkscape:window-width="1856"
     inkscape:window-height="1368"
     inkscape:window-x="0"
     inkscape:window-y="25"
     inkscape:window-maximized="0"
     inkscape:showpageshadow="2"
     inkscape:pagecheckerboard="0"
     inkscape:deskcolor="#d1d1d1" /><metadata
     id="metadata5"><rdf:RDF><cc:Work
         rdf:about=""><dc:format>image/svg+xml</dc:format><dc:type
           rdf:resource="http://purl.org/dc/dcmitype/StillImage" /><dc:title /></cc:Work></rdf:RDF></metadata><g
     inkscape:label="Layer 1"
     inkscape:groupmode="layer"
     id="layer1"><text
       xml:space="preserve"
       style="font-style:normal;font-weight:normal;font-size:40px;line-height:1.25;font-family:sans-serif;fill:#72befb;fill-opacity:1;stroke:none"
       x="286.45615"
       y="110"
       id="text1997"><tspan
         sodipodi:role="line"
         id="tspan1995"
         x="286.45615"
         y="110"
         style="font-style:normal;font-variant:normal;font-weight:normal;font-stretch:normal;font-size:109.333px;font-family:sans-serif;-inkscape-font-specification:'sans-serif, Normal';font-variant-ligatures:normal;font-variant-caps:normal;font-variant-numeric:normal;font-variant-east-asian:normal">KL Cityscape</tspan></text><text
       xml:space="preserve"
       style="font-style:normal;font-variant:normal;font-weight:normal;font-stretch:normal;font-size:85.3333px;line-height:1.25;font-family:sans-serif;-inkscape-font-specification:'sans-serif, Normal';font-variant-ligatures:normal;font-variant-caps:normal;font-variant-numeric:normal;font-variant-east-asian:normal;fill:#72befb;fill-opacity:1;stroke:none"
       x="112.81274"
       y="592"
       id="text2021"><tspan
         sodipodi:role="line"
         id="tspan2019"
         x="112.81274"
         y="592">All about Urban Planning</tspan></text><path
       d="m 592.26585,147.22296 c 12.32,-1.02 24.69,-1.28 37.05,-1.22 19.7,0.07 39.43,-0.42 59.08,1.25 22.04,1.9 45.26,5.62 63.33,19.35001 16.81,12.81 26.09,32.74 32.01,52.51 7.59,25.74 11.01,52.47 13.93,79.08 1.84,17.89 3.46,35.83 3.62,53.83 0.73,16.35 1.06,32.72 0.79,49.08 -0.88,15.37 -3.84,32.14 -15.36,43.33 -11.24,10.68 -27.46,12.96 -42.33,13.27 15.79,18.66 31.33,37.53 47,56.29 -14.06,0.03 -28.12,-0.01 -42.18,0.02 -10.724,-12.969 -21.411,-25.969 -32.06,-39 -51.33,-0.04 -102.67,0.03 -154.01,-0.03 -10.90996,12.87 -21.43996,26.05 -32.24996,39.01 -14.11,0.03 -28.22,0 -42.33,0.01 15.81,-18.67 31.32,-37.62 47.09,-56.33 -13.85,-0.27 -28.73,-2.22 -39.88,-11.17 -9.84,-7.9 -14.56,-20.34 -16.41,-32.49 -2.23,-14.56 -1.49,-29.36 -1.02,-44.01 0.22,-20.71 0.92,-41.43 3.1,-62.03 2.41,-25.17 5.44,-50.37 11.18,-75.03 4.16,-17.13 9.61,-34.33 19.55,-49.06 7.62,-11.4 18.51,-20.53 31.07,-26.05 15.41996,-6.84001 32.34996,-9.26001 49.02996,-10.61001 z m -27.01,23.74001 c -7.24996,1.31 -14.09996,4.53 -19.78996,9.19 -12.25,9.97 -19.69,24.49 -24.96,39.09 -8.88,25.58 -12.16,52.8 -12.77,79.76 0.05,5.17 -0.61,10.74 2.09,15.42 2.93,5.52 9.38,8.37 15.46,8.17 76.67996,-0.02 153.34996,0 230.02996,-0.01 6.21,0.11 12.73,-3.11 15.31,-8.96 2.53,-5.15 1.8,-11.01 1.8,-16.54 -0.95,-23.25 -3.41,-46.63 -10,-69.02 -4.13,-13.72 -9.67,-27.3 -18.64,-38.6 -6.66,-8.47 -15.74,-15.37 -26.32,-17.95 -31.48,-6.59 -63.81,-6.37 -95.81,-5.99 -18.9,0.3 -37.81,1.94 -56.4,5.44 z m -55.49996,208.1 c -1.38,3.83 -0.94,7.97 -1.03,11.96 0.06,4.55 -0.46,9.48 1.99,13.57 2.63,4.88 8.09,7.89 13.61,7.74 11.66,0.02 23.32,0.04 34.97996,-0.01 6.39,0.1 12.42,-4.37 14.39,-10.41 1.53,-5.47 0.49,-11.27 0.79,-16.88 0.34,-7.93 -6.23,-15.43 -14.27,-15.58 -12.49996,-0.04 -25.00996,-0.1 -37.49996,0.03 -5.72,0.26 -10.95,4.26 -12.96,9.58 z m 195.96996,5.87 c 0.3,5.68 -0.69,11.51 0.69,17.08 1.94,5.89 7.71,10.28 13.96,10.28 11.65,0.12 23.3,0.03 34.95,0.05 5.29,0.27 10.58,-2.38 13.46,-6.85 3.91,-5.75 2.14,-13.04 2.55,-19.53 0.39,-5.72 -2.43,-11.64 -7.47,-14.51 -4.65,-2.92 -10.32,-1.85 -15.5,-2.03 -10.19,0.16 -20.42,-0.34 -30.59,0.25 -7.02,1.25 -12.54,8.1 -12.05,15.26 z"
       id="CompoundPath 1"
       fill="#03271f"
       fill-rule="nonzero"
       stroke="none"
       stroke-width="1"
       stroke-linecap="butt"
       stroke-linejoin="miter"
       stroke-miterlimit="10"
       stroke-dasharray="none"
       stroke-dashoffset="0"
       font-family="none"
       font-weight="none"
       font-size="none"
       text-anchor="none"
       style="mix-blend-mode:normal;fill:#72befb;fill-opacity:1" /></g></svg>
